# xmcd
#
# Track frame offsets: 
#        150
#        12717
#        28564
#        54469
#
# Disc length: 1206 seconds
#
# Revision: 1
# Processed by: cddbd v1.5.1PL0 Copyright (c) Steve Scherf et al.
# Submitted via: ExactAudioCopy v0.90b4
#
DISCID=2c04b404
DTITLE=Good Charlotte - I Just Wanna Live
DYEAR=2004
DGENRE=Rock
TTITLE0=I Just Wanna Live
TTITLE1=S.O.S. (Live from Sessions@AOL
TTITLE2=The World is Black (Live from Sessions@AOL)
TTITLE3=I Just Wanna Live (Video)
EXTD=
EXTT0=
EXTT1=
EXTT2=
EXTT3=
PLAYORDER=
